<svg xmlns="http://www.w3.org/2000/svg" width="1440" height="330" viewBox="0 0 1440 330" fill="none">
  <g opacity=".12" stroke="#c9b8aa" stroke-width="2.4" stroke-linecap="round">
    <path d="M-36 224C110 138 210 289 356 201C505 112 613 265 760 176C914 83 1034 243 1184 151C1285 89 1367 109 1482 48"/>
    <path d="M-44 272C90 190 219 328 365 244C514 158 641 309 787 221C934 132 1045 281 1196 192C1304 128 1378 145 1482 86"/>
    <path d="M76 88C218 6 342 147 486 63C626-19 754 125 902 39C1042-42 1162 95 1311 12"/>
  </g>
  <g opacity=".14" fill="#d9c8bb">
    <path d="M192 58h11v111c0 18-14 34-34 39-22 5-42-3-46-18-4-16 10-31 32-36 12-3 24-1 32 4V58Z"/>
    <path d="M1032 24h11v126c0 18-14 34-35 39-22 5-42-3-45-18-4-15 10-31 32-36 12-3 24-1 37 4V24Z"/>
    <path d="M1242 102h10v97c0 16-12 30-30 34-19 5-37-2-41-16-3-14 9-28 29-32 10-2 20-1 32 4V102Z"/>
    <path d="M513 96h10v93c0 15-12 29-30 34-19 4-37-3-40-16-4-14 9-28 28-32 10-2 20-1 32 4V96Z"/>
  </g>
  <g opacity=".1" stroke="#d7c7bc" stroke-width="2.2" stroke-linecap="round">
    <path d="M292 22v166"/>
    <path d="M280 22h84"/>
    <path d="M280 46h84"/>
    <path d="M280 70h84"/>
    <path d="M280 94h84"/>
    <path d="M1168 76v178"/>
    <path d="M1155 76h92"/>
    <path d="M1155 101h92"/>
    <path d="M1155 126h92"/>
    <path d="M1155 151h92"/>
  </g>
</svg>
